<svg width="640" height="420" viewBox="0 0 640 420" fill="none" xmlns="http://www.w3.org/2000/svg">
  <defs>
    <linearGradient id="training-bg" x1="0" y1="0" x2="1" y2="1">
      <stop offset="0%" stop-color="#fde68a" />
      <stop offset="100%" stop-color="#f59e0b" />
    </linearGradient>
    <linearGradient id="training-card" x1="0" y1="0" x2="0" y2="1">
      <stop offset="0%" stop-color="#fff7ed" />
      <stop offset="100%" stop-color="#fed7aa" />
    </linearGradient>
  </defs>
  <rect width="640" height="420" rx="36" fill="url(#training-bg)" />
  <g filter="url(#trainingShadow)">
    <path d="M120 150C120 132.327 134.327 118 152 118H488C505.673 118 520 132.327 520 150V294C520 311.673 505.673 326 488 326H152C134.327 326 120 311.673 120 294V150Z" fill="url(#training-card)" />
    <path d="M184 214C184 185.938 206.938 163 235 163C263.062 163 286 185.938 286 214V260H184V214Z" fill="#f59e0b" fill-opacity="0.35" />
    <path d="M354 210C354 193.431 367.431 180 384 180H452C468.569 180 482 193.431 482 210V260H354V210Z" fill="#92400e" fill-opacity="0.2" />
    <rect x="184" y="272" width="298" height="28" rx="14" fill="#7c2d12" fill-opacity="0.15" />
    <rect x="184" y="308" width="240" height="16" rx="8" fill="#7c2d12" fill-opacity="0.18" />
    <rect x="184" y="134" width="240" height="12" rx="6" fill="#7c2d12" fill-opacity="0.3" />
  </g>
  <defs>
    <filter id="trainingShadow" x="100" y="106" width="440" height="240" filterUnits="userSpaceOnUse" color-interpolation-filters="sRGB">
      <feFlood flood-opacity="0" result="BackgroundImageFix" />
      <feDropShadow dx="0" dy="18" stdDeviation="22" flood-color="#b45309" flood-opacity="0.35" />
    </filter>
  </defs>
</svg>
