<svg width="640" height="420" viewBox="0 0 640 420" fill="none" xmlns="http://www.w3.org/2000/svg">
  <defs>
    <linearGradient id="foundations-bg" x1="0" y1="0" x2="1" y2="1">
      <stop offset="0%" stop-color="#334155" />
      <stop offset="100%" stop-color="#0f172a" />
    </linearGradient>
    <linearGradient id="foundations-card" x1="0" y1="0" x2="0" y2="1">
      <stop offset="0%" stop-color="#e2e8f0" />
      <stop offset="100%" stop-color="#cbd5f5" />
    </linearGradient>
  </defs>
  <rect width="640" height="420" rx="36" fill="url(#foundations-bg)" />
  <g filter="url(#foundationsShadow)">
    <rect x="88" y="92" width="464" height="288" rx="32" fill="url(#foundations-card)" />
    <rect x="132" y="132" width="170" height="26" rx="13" fill="#0f172a" fill-opacity="0.3" />
    <rect x="132" y="170" width="300" height="18" rx="9" fill="#0f172a" fill-opacity="0.18" />
    <rect x="132" y="198" width="276" height="18" rx="9" fill="#0f172a" fill-opacity="0.12" />
    <rect x="132" y="226" width="240" height="18" rx="9" fill="#0f172a" fill-opacity="0.08" />
    <rect x="132" y="270" width="360" height="72" rx="24" fill="#0f172a" fill-opacity="0.12" />
    <path d="M168 294C168 278.536 180.536 266 196 266H340C355.464 266 368 278.536 368 294V324H168V294Z" fill="#1e293b" fill-opacity="0.3" />
    <rect x="196" y="306" width="200" height="18" rx="9" fill="#0f172a" fill-opacity="0.25" />
  </g>
  <defs>
    <filter id="foundationsShadow" x="68" y="80" width="504" height="328" filterUnits="userSpaceOnUse" color-interpolation-filters="sRGB">
      <feFlood flood-opacity="0" result="BackgroundImageFix" />
      <feDropShadow dx="0" dy="20" stdDeviation="24" flood-color="#0f172a" flood-opacity="0.45" />
    </filter>
  </defs>
</svg>
