<svg width="640" height="420" viewBox="0 0 640 420" fill="none" xmlns="http://www.w3.org/2000/svg">
  <defs>
    <linearGradient id="helps-bg" x1="0" y1="0" x2="1" y2="1">
      <stop offset="0%" stop-color="#fbbf24" />
      <stop offset="100%" stop-color="#f97316" />
    </linearGradient>
    <linearGradient id="card" x1="0" y1="0" x2="0" y2="1">
      <stop offset="0%" stop-color="#ffffff" />
      <stop offset="100%" stop-color="#fef3c7" />
    </linearGradient>
  </defs>
  <rect width="640" height="420" rx="36" fill="url(#helps-bg)" />
  <g filter="url(#helpsShadow)">
    <rect x="80" y="82" width="480" height="280" rx="28" fill="url(#card)" />
    <rect x="120" y="122" width="160" height="28" rx="14" fill="#fbbf24" fill-opacity="0.7" />
    <rect x="120" y="166" width="400" height="18" rx="9" fill="#1f2937" fill-opacity="0.2" />
    <rect x="120" y="196" width="360" height="18" rx="9" fill="#1f2937" fill-opacity="0.14" />
    <rect x="120" y="226" width="260" height="18" rx="9" fill="#1f2937" fill-opacity="0.1" />
    <rect x="120" y="268" width="360" height="60" rx="16" fill="#fef3c7" stroke="#f59e0b" stroke-width="2" />
    <circle cx="156" cy="298" r="18" fill="#f59e0b" fill-opacity="0.5" />
    <rect x="190" y="286" width="220" height="24" rx="12" fill="#1f2937" fill-opacity="0.2" />
    <rect x="190" y="316" width="180" height="14" rx="7" fill="#1f2937" fill-opacity="0.16" />
  </g>
  <defs>
    <filter id="helpsShadow" x="60" y="70" width="520" height="320" filterUnits="userSpaceOnUse" color-interpolation-filters="sRGB">
      <feFlood flood-opacity="0" result="BackgroundImageFix" />
      <feDropShadow dx="0" dy="18" stdDeviation="22" flood-color="#f97316" flood-opacity="0.3" />
    </filter>
  </defs>
</svg>
