<svg width="640" height="420" viewBox="0 0 640 420" fill="none" xmlns="http://www.w3.org/2000/svg">
  <defs>
    <linearGradient id="tc-bg" x1="0" y1="0" x2="1" y2="1">
      <stop offset="0%" stop-color="#0a84ff" />
      <stop offset="100%" stop-color="#1d1d1f" />
    </linearGradient>
    <linearGradient id="tc-pane" x1="0" y1="0" x2="0" y2="1">
      <stop offset="0%" stop-color="#ffffff" stop-opacity="0.95" />
      <stop offset="100%" stop-color="#f5f5f7" />
    </linearGradient>
  </defs>
  <rect width="640" height="420" rx="36" fill="url(#tc-bg)" />
  <g filter="url(#shadow)">
    <rect x="54" y="54" width="532" height="312" rx="24" fill="url(#tc-pane)" />
    <rect x="54" y="54" width="532" height="72" rx="24" fill="#111827" />
    <circle cx="94" cy="90" r="10" fill="#f87171" />
    <circle cx="128" cy="90" r="10" fill="#facc15" />
    <circle cx="162" cy="90" r="10" fill="#34d399" />
    <rect x="108" y="160" width="164" height="160" rx="18" fill="#2563eb" fill-opacity="0.12" />
    <rect x="300" y="160" width="220" height="32" rx="16" fill="#0f172a" fill-opacity="0.1" />
    <rect x="300" y="206" width="220" height="32" rx="16" fill="#0f172a" fill-opacity="0.08" />
    <rect x="300" y="252" width="180" height="32" rx="16" fill="#0f172a" fill-opacity="0.06" />
    <rect x="300" y="298" width="132" height="24" rx="12" fill="#0f172a" fill-opacity="0.15" />
    <rect x="108" y="332" width="164" height="12" rx="6" fill="#2563eb" fill-opacity="0.2" />
  </g>
  <defs>
    <filter id="shadow" x="34" y="42" width="572" height="352" filterUnits="userSpaceOnUse" color-interpolation-filters="sRGB">
      <feFlood flood-opacity="0" result="BackgroundImageFix" />
      <feDropShadow dx="0" dy="24" stdDeviation="24" flood-color="#0f172a" flood-opacity="0.25" />
    </filter>
  </defs>
</svg>
